<?xml version="1.0" encoding="UTF-8" standalone="no"?>
<svg
   aria-hidden="true"
   height="14.000061"
   viewBox="0 0 16 14.000061"
   version="1.1"
   width="16"
   data-view-component="true"
   class="octicon octicon-heart icon-sponsor mr-1 color-fg-sponsors"
   id="svg184"
   xml:space="preserve"
   xmlns="http://www.w3.org/2000/svg"
   xmlns:svg="http://www.w3.org/2000/svg"><defs
     id="defs188" /><path
     d="m 8,13.25 0.345,0.666 a 0.75,0.75 0 0 1 -0.69,0 L 7.647,13.912 7.629,13.902 A 7.152,7.152 0 0 1 7.319,13.732 22.055,22.055 0 0 1 3.885,11.318 C 2.045,9.731 0,7.35 0,4.5 0,1.836 2.086,0 4.25,0 5.797,0 7.153,0.802 8,2.02 8.847,0.802 10.203,0 11.75,0 13.914,0 16,1.836 16,4.5 c 0,2.85 -2.045,5.231 -3.885,6.818 a 22.066,22.066 0 0 1 -3.744,2.584 l -0.018,0.01 -0.006,0.003 H 8.345 Z M 4.25,1.5 c -1.336,0 -2.75,1.164 -2.75,3 0,2.15 1.58,4.144 3.365,5.682 A 20.58,20.58 0 0 0 8,12.393 20.58,20.58 0 0 0 11.135,10.182 C 12.92,8.644 14.5,6.65 14.5,4.5 c 0,-1.836 -1.414,-3 -2.75,-3 -1.373,0 -2.609,0.986 -3.029,2.456 a 0.749,0.749 0 0 1 -1.442,0 C 6.859,2.486 5.623,1.5 4.25,1.5 Z"
     id="path182"
     style="fill:#ba568e;fill-opacity:1;stroke:none;stroke-opacity:1" /></svg>
